<svg width="138" height="40" viewBox="0 0 138 40" fill="none" xmlns="http://www.w3.org/2000/svg">
<g clip-path="url(#clip0_112_41)">
<path d="M20.0022 40C23.9584 40 27.8258 38.8268 31.1153 36.6287C34.4047 34.4306 36.9684 31.3065 38.4822 27.6513C39.996 23.9961 40.3919 19.9741 39.6197 16.094C38.8476 12.2138 36.9421 8.64975 34.1443 5.85257C31.3465 3.05539 27.7821 1.15071 23.9017 0.379418C20.0214 -0.391877 15.9995 0.00485675 12.3447 1.51945C8.68981 3.03404 5.56619 5.59845 3.36884 8.88837C1.1715 12.1783 -0.000865409 16.0459 4.793e-07 20.0022C0.00579632 25.3049 2.11517 30.3887 5.86517 34.1379C9.61518 37.8871 14.6995 39.9954 20.0022 40ZM14.311 14.3855C14.6738 14.3855 15.0285 14.493 15.3301 14.6946C15.6318 14.8961 15.8669 15.1826 16.0057 15.5178C16.1445 15.853 16.1809 16.2218 16.1101 16.5776C16.0393 16.9334 15.8646 17.2603 15.6081 17.5168C15.3516 17.7733 15.0247 17.948 14.6689 18.0188C14.3131 18.0896 13.9443 18.0533 13.6091 17.9144C13.2739 17.7756 12.9874 17.5405 12.7859 17.2388C12.5843 16.9372 12.4767 16.5825 12.4767 16.2198C12.4773 15.9776 12.5257 15.7379 12.6192 15.5144C12.7127 15.291 12.8494 15.0882 13.0215 14.9178C13.1935 14.7473 13.3976 14.6126 13.6219 14.5212C13.8462 14.4299 14.0864 14.3837 14.3285 14.3855H14.311ZM13.2735 6.53168V12.4067C12.3559 12.6623 11.562 13.2417 11.0386 14.0376C10.5153 14.8335 10.298 15.792 10.427 16.7358C10.556 17.6795 11.0225 18.5446 11.7402 19.1709C12.4579 19.7972 13.3782 20.1422 14.3307 20.1422C15.2833 20.1422 16.2036 19.7972 16.9213 19.1709C17.639 18.5446 18.1055 17.6795 18.2345 16.7358C18.3635 15.792 18.1462 14.8335 17.6229 14.0376C17.0995 13.2417 16.3056 12.6623 15.388 12.4067V5.65612C16.878 5.17106 18.4352 4.92432 20.0022 4.92502H20.2123V20.6282H25.9472C26.2028 21.5458 26.7822 22.3398 27.5781 22.8631C28.374 23.3864 29.3325 23.6037 30.2763 23.4747C31.2201 23.3457 32.0852 22.8792 32.7114 22.1615C33.3377 21.4438 33.6828 20.5235 33.6828 19.571C33.6828 18.6184 33.3377 17.6981 32.7114 16.9804C32.0852 16.2627 31.2201 15.7962 30.2763 15.6672C29.3325 15.5382 28.374 15.7555 27.5781 16.2789C26.7822 16.8022 26.2028 17.5961 25.9472 18.5137H22.3268V5.13078C24.5309 5.46516 26.6329 6.28641 28.4799 7.53485C30.3269 8.78328 31.8725 10.4275 33.0045 12.3481C34.1365 14.2687 34.8263 16.4174 35.0239 18.6379C35.2215 20.8585 34.9219 23.0952 34.1469 25.1855H17.4324C17.1768 24.2679 16.5975 23.474 15.8016 22.9506C15.0057 22.4273 14.0471 22.21 13.1034 22.339C12.1596 22.468 11.2945 22.9345 10.6682 23.6522C10.0419 24.3699 9.69686 25.2902 9.69686 26.2427C9.69686 27.1953 10.0419 28.1156 10.6682 28.8333C11.2945 29.551 12.1596 30.0175 13.1034 30.1465C14.0471 30.2755 15.0057 30.0582 15.8016 29.5349C16.5975 29.0115 17.1768 28.2176 17.4324 27.3H33.1706C32.0278 29.3653 30.4156 31.133 28.464 32.4606C26.5124 33.7882 24.276 34.6384 21.9353 34.9427C19.5947 35.247 17.2153 34.9969 14.9891 34.2125C12.7629 33.4281 10.7522 32.1314 9.1193 30.427C7.4864 28.7226 6.277 26.6583 5.58866 24.4005C4.90032 22.1428 4.75233 19.7548 5.15661 17.4293C5.5609 15.1039 6.50614 12.906 7.91608 11.013C9.32602 9.12001 11.1612 7.58496 13.2735 6.53168ZM27.9129 19.5644C27.912 19.2004 28.0192 18.8443 28.2209 18.5412C28.4226 18.2382 28.7098 18.0019 29.0459 17.8622C29.3821 17.7224 29.7521 17.6857 30.1092 17.7565C30.4663 17.8273 30.7943 18.0025 31.0517 18.2599C31.3091 18.5173 31.4843 18.8453 31.5551 19.2024C31.6259 19.5595 31.5891 19.9295 31.4494 20.2657C31.3097 20.6018 31.0734 20.889 30.7703 21.0907C30.4673 21.2924 30.1112 21.3996 29.7472 21.3987C29.2626 21.3976 28.798 21.2051 28.4545 20.8633C28.111 20.5214 27.9163 20.0578 27.9129 19.5732V19.5644ZM15.4668 26.2318C15.4668 26.5955 15.3589 26.9509 15.1569 27.2533C14.9549 27.5557 14.6677 27.7914 14.3317 27.9305C13.9958 28.0697 13.6261 28.1061 13.2694 28.0351C12.9127 27.9642 12.5851 27.7891 12.328 27.5319C12.0708 27.2748 11.8957 26.9472 11.8247 26.5905C11.7538 26.2338 11.7902 25.8641 11.9294 25.5282C12.0686 25.1922 12.3042 24.905 12.6066 24.703C12.909 24.501 13.2645 24.3931 13.6281 24.3931C14.1158 24.3931 14.5834 24.5868 14.9282 24.9317C15.2731 25.2765 15.4668 25.7442 15.4668 26.2318Z" fill="url(#paint0_linear_112_41)"/>
</g>
<path d="M59.96 32.42C57.36 32.42 55.3 31.7 53.78 30.26C52.26 28.8 51.5 26.72 51.5 24.02V18.98C51.5 16.28 52.26 14.21 53.78 12.77C55.3 11.31 57.36 10.58 59.96 10.58C62.54 10.58 64.53 11.29 65.93 12.71C67.35 14.11 68.06 16.04 68.06 18.5V18.68H64.16V18.38C64.16 17.14 63.81 16.12 63.11 15.32C62.43 14.52 61.38 14.12 59.96 14.12C58.56 14.12 57.46 14.55 56.66 15.41C55.86 16.27 55.46 17.44 55.46 18.92V24.08C55.46 25.54 55.86 26.71 56.66 27.59C57.46 28.45 58.56 28.88 59.96 28.88C61.38 28.88 62.43 28.48 63.11 27.68C63.81 26.86 64.16 25.84 64.16 24.62V24.08H68.06V24.5C68.06 26.96 67.35 28.9 65.93 30.32C64.53 31.72 62.54 32.42 59.96 32.42ZM69.9266 32V17.12H73.6466V18.8H74.1866C74.4066 18.2 74.7666 17.76 75.2666 17.48C75.7866 17.2 76.3866 17.06 77.0666 17.06H78.8666V20.42H77.0066C76.0466 20.42 75.2566 20.68 74.6366 21.2C74.0166 21.7 73.7066 22.48 73.7066 23.54V32H69.9266ZM86.5938 32.42C85.1138 32.42 83.8038 32.11 82.6638 31.49C81.5438 30.85 80.6638 29.96 80.0238 28.82C79.4038 27.66 79.0938 26.3 79.0938 24.74V24.38C79.0938 22.82 79.4038 21.47 80.0238 20.33C80.6438 19.17 81.5138 18.28 82.6338 17.66C83.7538 17.02 85.0538 16.7 86.5338 16.7C87.9938 16.7 89.2638 17.03 90.3438 17.69C91.4238 18.33 92.2638 19.23 92.8638 20.39C93.4638 21.53 93.7638 22.86 93.7638 24.38V25.67H82.9338C82.9738 26.69 83.3538 27.52 84.0738 28.16C84.7938 28.8 85.6738 29.12 86.7138 29.12C87.7738 29.12 88.5538 28.89 89.0538 28.43C89.5538 27.97 89.9338 27.46 90.1938 26.9L93.2838 28.52C93.0038 29.04 92.5938 29.61 92.0538 30.23C91.5338 30.83 90.8338 31.35 89.9538 31.79C89.0738 32.21 87.9538 32.42 86.5938 32.42ZM82.9638 22.85H89.9238C89.8438 21.99 89.4938 21.3 88.8738 20.78C88.2738 20.26 87.4838 20 86.5038 20C85.4838 20 84.6738 20.26 84.0738 20.78C83.4738 21.3 83.1038 21.99 82.9638 22.85ZM101.828 32.42C99.8883 32.42 98.2983 32 97.0583 31.16C95.8183 30.32 95.0683 29.12 94.8083 27.56L98.2883 26.66C98.4283 27.36 98.6583 27.91 98.9783 28.31C99.3183 28.71 99.7283 29 100.208 29.18C100.708 29.34 101.248 29.42 101.828 29.42C102.708 29.42 103.358 29.27 103.778 28.97C104.198 28.65 104.408 28.26 104.408 27.8C104.408 27.34 104.208 26.99 103.808 26.75C103.408 26.49 102.768 26.28 101.888 26.12L101.048 25.97C100.008 25.77 99.0583 25.5 98.1983 25.16C97.3383 24.8 96.6483 24.31 96.1283 23.69C95.6083 23.07 95.3483 22.27 95.3483 21.29C95.3483 19.81 95.8883 18.68 96.9683 17.9C98.0483 17.1 99.4683 16.7 101.228 16.7C102.888 16.7 104.268 17.07 105.368 17.81C106.468 18.55 107.188 19.52 107.528 20.72L104.018 21.8C103.858 21.04 103.528 20.5 103.028 20.18C102.548 19.86 101.948 19.7 101.228 19.7C100.508 19.7 99.9583 19.83 99.5783 20.09C99.1983 20.33 99.0083 20.67 99.0083 21.11C99.0083 21.59 99.2083 21.95 99.6083 22.19C100.008 22.41 100.548 22.58 101.228 22.7L102.068 22.85C103.188 23.05 104.198 23.32 105.098 23.66C106.018 23.98 106.738 24.45 107.258 25.07C107.798 25.67 108.068 26.49 108.068 27.53C108.068 29.09 107.498 30.3 106.358 31.16C105.238 32 103.728 32.42 101.828 32.42ZM115.308 32C114.328 32 113.528 31.7 112.908 31.1C112.308 30.48 112.008 29.66 112.008 28.64V20.24H108.288V17.12H112.008V12.5H115.788V17.12H119.868V20.24H115.788V27.98C115.788 28.58 116.068 28.88 116.628 28.88H119.508V32H115.308ZM126.429 32.42C125.369 32.42 124.419 32.24 123.579 31.88C122.739 31.5 122.069 30.96 121.569 30.26C121.089 29.54 120.849 28.67 120.849 27.65C120.849 26.63 121.089 25.78 121.569 25.1C122.069 24.4 122.749 23.88 123.609 23.54C124.489 23.18 125.489 23 126.609 23H130.689V22.16C130.689 21.46 130.469 20.89 130.029 20.45C129.589 19.99 128.889 19.76 127.929 19.76C126.989 19.76 126.289 19.98 125.829 20.42C125.369 20.84 125.069 21.39 124.929 22.07L121.449 20.9C121.689 20.14 122.069 19.45 122.589 18.83C123.129 18.19 123.839 17.68 124.719 17.3C125.619 16.9 126.709 16.7 127.989 16.7C129.949 16.7 131.499 17.19 132.639 18.17C133.779 19.15 134.349 20.57 134.349 22.43V27.98C134.349 28.58 134.629 28.88 135.189 28.88H136.389V32H133.869C133.129 32 132.519 31.82 132.039 31.46C131.559 31.1 131.319 30.62 131.319 30.02V29.99H130.749C130.669 30.23 130.489 30.55 130.209 30.95C129.929 31.33 129.489 31.67 128.889 31.97C128.289 32.27 127.469 32.42 126.429 32.42ZM127.089 29.36C128.149 29.36 129.009 29.07 129.669 28.49C130.349 27.89 130.689 27.1 130.689 26.12V25.82H126.879C126.179 25.82 125.629 25.97 125.229 26.27C124.829 26.57 124.629 26.99 124.629 27.53C124.629 28.07 124.839 28.51 125.259 28.85C125.679 29.19 126.289 29.36 127.089 29.36Z" fill="#05092B"/>
<defs>
<linearGradient id="paint0_linear_112_41" x1="-0.253381" y1="14.3764" x2="40.4432" y2="15.0935" gradientUnits="userSpaceOnUse">
<stop stop-color="#351EE0"/>
<stop offset="1" stop-color="#3F74EF"/>
</linearGradient>
<clipPath id="clip0_112_41">
<rect width="40" height="40" fill="white"/>
</clipPath>
</defs>
</svg>
